<svg width="64" height="64" viewBox="0 0 64 64" fill="none" xmlns="http://www.w3.org/2000/svg">
<g clip-path="url(#clip0)">
<path d="M28.4294 7.92984L0.669373 51.5298C-1.12063 54.3498 0.899373 58.0398 4.23937 58.0398H59.7594C63.0994 58.0398 65.1294 54.3498 63.3294 51.5298L35.5694 7.92984C33.9094 5.30984 30.0894 5.30984 28.4294 7.92984Z" fill="#F16768"/>
<path d="M4.24044 54.21C4.17044 54.21 4.00044 54.21 3.88044 54C3.76044 53.79 3.85044 53.64 3.89044 53.58L31.6504 9.98004C31.6804 9.93004 31.7704 9.79004 32.0004 9.79004C32.2304 9.79004 32.3104 9.93004 32.3504 9.98004L60.1104 53.58C60.1504 53.64 60.2404 53.79 60.1204 54C60.0004 54.21 59.8304 54.21 59.7604 54.21H4.24044Z" fill="#FBD77A"/>
<path d="M40.5597 36.4297H23.4297V49.7297H40.5597V36.4297Z" fill="#2D4A63"/>
<path d="M33.3195 29.2598H30.6895V33.3898H33.3195V29.2598Z" fill="#F4F2F2"/>
<path d="M34.7809 33.1699H29.2109V34.8399H34.7809V33.1699Z" fill="#2D4A63"/>
<path d="M34.7809 27.8203H29.2109V29.4803H34.7809V27.8203Z" fill="#2D4A63"/>
<path d="M33.3009 39.0596L32.4109 42.5096L34.7909 42.7996L30.6109 47.0996L31.3009 43.7996L29.2109 43.4796L33.3009 39.0596Z" fill="#F4F2F2"/>
<path d="M37.6492 28.01H26.3492C25.8492 28.01 25.4492 27.61 25.4492 27.11C25.4492 26.61 25.8492 26.21 26.3492 26.21H37.6492C38.1492 26.21 38.5492 26.61 38.5492 27.11C38.5492 27.61 38.1492 28.01 37.6492 28.01Z" fill="#355471"/>
<path d="M42.3402 34.6396H21.6602V36.7096H42.3402V34.6396Z" fill="#355471"/>
<path d="M42.3402 49.4404H21.6602V51.5104H42.3402V49.4404Z" fill="#355471"/>
</g>
<defs>
<clipPath id="clip0">
<rect width="64" height="64" fill="white"/>
</clipPath>
</defs>
</svg>