<svg width="64" height="64" viewBox="0 0 64 64" fill="none" xmlns="http://www.w3.org/2000/svg">
<g clip-path="url(#clip0)">
<path d="M28.4294 7.92984L0.669373 51.5298C-1.12063 54.3498 0.899373 58.0398 4.23937 58.0398H59.7594C63.0994 58.0398 65.1294 54.3498 63.3294 51.5298L35.5694 7.92984C33.9094 5.30984 30.0894 5.30984 28.4294 7.92984Z" fill="#F16768"/>
<path d="M4.24044 54.21C4.17044 54.21 4.00044 54.21 3.88044 54C3.76044 53.79 3.85044 53.64 3.89044 53.58L31.6504 9.98004C31.6804 9.93004 31.7704 9.79004 32.0004 9.79004C32.2304 9.79004 32.3104 9.93004 32.3504 9.98004L60.1104 53.58C60.1504 53.64 60.2404 53.79 60.1204 54C60.0004 54.21 59.8304 54.21 59.7604 54.21H4.24044Z" fill="#FBD77A"/>
<path d="M40.5509 38.0499L37.3309 32.4699C35.8709 31.3199 34.0109 30.6299 32.0109 30.6299C30.0109 30.6299 28.1609 31.3199 26.6909 32.4599L23.4709 38.0399C23.4109 38.4299 23.3809 38.8399 23.3809 39.2499C23.3809 42.8799 25.6209 45.9899 28.7909 47.2599H35.2309C38.4009 45.9899 40.6409 42.8799 40.6409 39.2499C40.6309 38.8399 40.6009 38.4399 40.5509 38.0499ZM34.4709 45.6299H29.5309C26.9709 44.6399 25.1709 42.1599 25.1709 39.2599C25.1709 38.9099 25.2009 38.5599 25.2509 38.2199L27.7309 33.9299C28.9009 32.9899 30.3909 32.4299 32.0009 32.4299C33.6209 32.4299 35.1109 32.9899 36.2709 33.9299L38.7509 38.2199C38.8009 38.5599 38.8309 38.9099 38.8309 39.2599C38.8409 42.1599 37.0309 44.6399 34.4709 45.6299Z" fill="#2D4A63"/>
<path d="M46.1 43.1596C45.87 41.4096 44.83 39.7896 43.19 38.8296C41.37 37.7696 39.21 37.7996 37.47 38.7096C36.97 38.9596 36.5 39.2896 36.09 39.6896C35.69 40.0796 35.34 40.5196 35.05 41.0196C34.77 41.5096 34.56 42.0296 34.43 42.5596C34.28 43.1196 34.23 43.7096 34.26 44.2796C34.35 46.2296 35.41 48.0996 37.23 49.1596C38.88 50.1096 40.8 50.1796 42.43 49.5096C39.9 51.1996 36.52 51.4096 33.72 49.7896C33.08 49.4196 32.51 48.9696 32.01 48.4696C31.51 48.9696 30.94 49.4096 30.3 49.7896C27.49 51.4096 24.11 51.1896 21.59 49.5096C23.22 50.1796 25.15 50.1096 26.79 49.1596C28.61 48.0996 29.67 46.2296 29.76 44.2796C29.79 43.7096 29.74 43.1296 29.59 42.5596C29.46 42.0296 29.25 41.5096 28.97 41.0196C28.68 40.5196 28.33 40.0796 27.93 39.6896C27.52 39.2896 27.05 38.9596 26.55 38.7096C24.81 37.7996 22.65 37.7696 20.83 38.8296C19.18 39.7796 18.15 41.3996 17.92 43.1596C17.72 40.1296 19.23 37.0896 22.04 35.4696C22.68 35.0996 23.35 34.8196 24.03 34.6496C23.84 33.9696 23.75 33.2496 23.75 32.5096C23.75 29.2696 25.62 26.4496 28.35 25.0996C26.95 26.1796 26.06 27.8796 26.06 29.7896C26.06 31.8996 27.17 33.7596 28.83 34.8096C29.29 35.1196 29.81 35.3496 30.35 35.4996C30.88 35.6596 31.45 35.7396 32.03 35.7396C32.61 35.7396 33.18 35.6596 33.71 35.4996C34.25 35.3496 34.77 35.1096 35.23 34.8096C36.89 33.7596 38 31.9096 38 29.7896C38 27.8896 37.1 26.1796 35.71 25.0996C38.44 26.4496 40.31 29.2596 40.31 32.5096C40.31 33.2496 40.21 33.9696 40.03 34.6496C40.72 34.8296 41.39 35.0996 42.02 35.4696C44.79 37.0896 46.29 40.1196 46.1 43.1596Z" fill="#355471"/>
<path d="M31.9995 41.3192C33.1372 41.3192 34.0595 40.3969 34.0595 39.2592C34.0595 38.1215 33.1372 37.1992 31.9995 37.1992C30.8617 37.1992 29.9395 38.1215 29.9395 39.2592C29.9395 40.3969 30.8617 41.3192 31.9995 41.3192Z" fill="#2D4A63"/>
</g>
<defs>
<clipPath id="clip0">
<rect width="64" height="64" fill="white"/>
</clipPath>
</defs>
</svg>