<svg width="64" height="64" viewBox="0 0 64 64" fill="none" xmlns="http://www.w3.org/2000/svg">
<g clip-path="url(#clip0)">
<path d="M28.4294 7.92984L0.669373 51.5298C-1.12063 54.3498 0.899373 58.0398 4.23937 58.0398H59.7594C63.0994 58.0398 65.1294 54.3498 63.3294 51.5298L35.5694 7.92984C33.9094 5.30984 30.0894 5.30984 28.4294 7.92984Z" fill="#F16768"/>
<path d="M4.24044 54.21C4.17044 54.21 4.00044 54.21 3.88044 54C3.76044 53.79 3.85044 53.64 3.89044 53.58L31.6504 9.98004C31.6804 9.93004 31.7704 9.79004 32.0004 9.79004C32.2304 9.79004 32.3104 9.93004 32.3504 9.98004L60.1104 53.58C60.1504 53.64 60.2404 53.79 60.1204 54C60.0004 54.21 59.8304 54.21 59.7604 54.21H4.24044Z" fill="#FBD77A"/>
<path d="M25.3407 47.53L25.8607 49.23L27.3107 50.68C26.0207 51.82 24.3407 52.5 22.5007 52.5C18.4807 52.5 15.2207 49.24 15.2207 45.22C15.2207 41.98 17.3307 39.25 20.2407 38.29C20.5807 38.59 20.9907 39.04 20.9807 39.48C20.9607 40.23 21.5107 41.94 21.5107 41.94L24.1207 42.68C25.3707 42.95 27.0007 42.63 27.8007 42.52C27.8007 42.52 27.0507 43.99 27.2007 45.3C27.3207 46.31 25.9407 46.21 25.9407 46.21L25.3407 47.53Z" fill="#355471"/>
<path d="M23.4004 38.5495L23.9304 26.5395L27.0404 25.2295L23.4004 38.5495Z" fill="#355471"/>
<path d="M24.6309 40.3297L32.3609 19.7197L34.4809 22.3897L24.6309 40.3297Z" fill="#355471"/>
<path d="M27.5098 39.8599L38.0698 25.1699L39.7498 28.1199L27.5098 39.8599Z" fill="#355471"/>
<path d="M29.1211 41.8096L41.4711 32.3496L42.8511 35.6996L29.1211 41.8096Z" fill="#355471"/>
<path d="M28.6699 44.2696L45.0099 40.3096L46.1999 43.3196L28.6699 44.2696Z" fill="#355471"/>
<path d="M28.25 47.3593L45.35 47.3193L45.86 51.1593L28.25 47.3593Z" fill="#355471"/>
</g>
<defs>
<clipPath id="clip0">
<rect width="64" height="64" fill="white"/>
</clipPath>
</defs>
</svg>