<svg width="64" height="64" viewBox="0 0 64 64" fill="none" xmlns="http://www.w3.org/2000/svg">
<g clip-path="url(#clip0)">
<path d="M28.4294 7.92984L0.669373 51.5298C-1.12063 54.3498 0.899373 58.0398 4.23937 58.0398H59.7594C63.0994 58.0398 65.1294 54.3498 63.3294 51.5298L35.5694 7.92984C33.9094 5.30984 30.0894 5.30984 28.4294 7.92984Z" fill="#F16768"/>
<path d="M4.24044 54.21C4.17044 54.21 4.00044 54.21 3.88044 54C3.76044 53.79 3.85044 53.64 3.89044 53.58L31.6504 9.98004C31.6804 9.93004 31.7704 9.79004 32.0004 9.79004C32.2304 9.79004 32.3104 9.93004 32.3504 9.98004L60.1104 53.58C60.1504 53.64 60.2404 53.79 60.1204 54C60.0004 54.21 59.8304 54.21 59.7604 54.21H4.24044Z" fill="#FBD77A"/>
<path d="M36.0732 45.0315C36.0733 45.496 35.9819 45.956 35.8042 46.3852C35.6266 46.8143 35.3661 47.2043 35.0377 47.5328C34.7092 47.8613 34.3193 48.1219 33.8902 48.2996C33.4611 48.4774 33.0011 48.5689 32.5366 48.5689C32.0721 48.5689 31.6122 48.4774 31.183 48.2996C30.7539 48.1219 30.364 47.8613 30.0356 47.5328C29.7071 47.2043 29.4467 46.8143 29.269 46.3852C29.0913 45.956 28.9999 45.496 29 45.0315C28.9999 44.567 29.0913 44.1071 29.269 43.6779C29.4467 43.2487 29.7071 42.8588 30.0356 42.5303C30.364 42.2018 30.7539 41.9412 31.183 41.7634C31.6122 41.5856 32.0721 41.4941 32.5366 41.4941C33.0011 41.4941 33.4611 41.5856 33.8902 41.7634C34.3193 41.9412 34.7092 42.2018 35.0377 42.5303C35.3661 42.8588 35.6266 43.2487 35.8042 43.6779C35.9819 44.1071 36.0733 44.567 36.0732 45.0315Z" fill="#355471" stroke="#355471" stroke-opacity="0.4" stroke-width="0.637795" stroke-linecap="square"/>
<path d="M32.5369 20.2021C30.6098 20.2021 29.0586 21.7863 29.0586 23.7541L30.087 36.1966C30.2834 37.8061 30.4512 38.718 31.1155 39.1469C31.5492 39.3445 32.0296 39.457 32.5369 39.457C33.0416 39.457 33.52 39.3458 33.9521 39.15C34.6201 38.7223 34.7898 37.8097 34.9867 36.1966L36.0151 23.7541C36.0151 21.7863 34.464 20.2021 32.5369 20.2021Z" fill="#355471" stroke="#355471" stroke-width="0.885827" stroke-linecap="square"/>
</g>
<defs>
<clipPath id="clip0">
<rect width="64" height="64" fill="white"/>
</clipPath>
</defs>
</svg>